<svg width="1024" height="1024" viewBox="0 0 1024 1024" fill="none" xmlns="http://www.w3.org/2000/svg">
<g clip-path="url(#clip0_0_1)">
<path d="M863.334 345.048C854.916 345.048 847.549 342.342 841.235 336.93C835.222 331.217 832.215 323.701 832.215 314.38C832.215 303.857 835.823 295.288 843.039 288.673C850.556 281.758 858.975 278.3 868.295 278.3C877.315 278.3 884.682 281.156 890.394 286.869C896.107 292.582 898.963 299.948 898.963 308.968C898.963 319.191 895.355 327.76 888.139 334.675C880.923 341.59 872.655 345.048 863.334 345.048ZM821.391 600.765C812.071 600.765 804.404 598.36 798.39 593.549C792.377 588.738 789.37 581.673 789.37 572.352C789.37 566.94 789.972 560.476 791.174 552.959C792.377 545.442 793.73 537.926 795.233 530.409L816.43 428.934C819.136 416.607 814.777 407.887 803.351 402.776L796.135 399.168L796.586 394.207L881.374 369.853L885.884 373.912L850.706 537.174C849.504 542.586 848.602 547.246 848 551.155C847.399 554.763 847.098 558.371 847.098 561.979C847.098 568.594 850.105 571.901 856.118 571.901C860.628 571.901 865.138 570.548 869.648 567.842C874.158 564.835 879.871 560.025 886.786 553.41L890.845 557.469C883.329 568.594 873.707 578.666 861.981 587.686C850.556 596.405 837.026 600.765 821.391 600.765Z" fill="#F5F0E8"/>
<path d="M594.186 597.157L589.676 594L623.952 428.934C625.455 421.117 625.004 415.404 622.599 411.796C620.194 407.887 616.135 404.73 610.422 402.325L603.657 399.168L604.559 394.658L683.033 369.853L687.543 373.912L675.366 448.327C681.68 433.895 689.046 420.816 697.465 409.09C705.884 397.364 714.753 388.043 724.074 381.128C733.395 373.912 742.715 370.304 752.036 370.304C761.357 370.304 768.873 372.86 774.586 377.971C780.299 382.782 783.155 389.246 783.155 397.364C783.155 405.783 780.599 412.698 775.488 418.11C770.677 423.522 764.063 426.228 755.644 426.228C749.029 426.228 742.715 424.574 736.702 421.267C730.689 417.659 724.826 412.548 719.113 405.933C708.59 413.75 699.57 423.973 692.053 436.601C684.536 448.928 677.621 462.458 671.307 477.191L666.797 497.937C663.49 513.872 660.333 529.808 657.326 545.743C654.319 561.678 651.313 577.764 648.306 594L594.186 597.157Z" fill="#F5F0E8"/>
<path d="M466.979 600.765C444.429 600.765 426.089 593.399 411.957 578.666C397.826 563.933 390.76 543.037 390.76 515.977C390.76 496.734 394.068 478.394 400.682 460.955C407.297 443.516 416.467 428.032 428.193 414.502C440.22 400.671 454.051 389.847 469.685 382.03C485.32 374.213 502.308 370.304 520.648 370.304C539.59 370.304 554.022 374.664 563.944 383.383C574.167 391.802 579.278 403.077 579.278 417.208C579.278 428.934 573.716 440.51 562.591 451.935C551.767 463.36 536.433 473.733 516.589 483.054C496.745 492.074 473.444 498.989 446.684 503.8C446.985 524.546 451.495 539.73 460.214 549.351C468.934 558.972 480.96 563.783 496.294 563.783C509.223 563.783 521.099 560.325 531.923 553.41C542.747 546.194 551.918 537.775 559.434 528.154L563.944 531.311C557.931 543.037 550.114 554.162 540.492 564.685C531.172 575.208 520.348 583.928 508.02 590.843C495.693 597.458 482.013 600.765 466.979 600.765ZM517.491 382.481C510.576 382.481 503.059 385.488 494.941 391.501C487.124 397.514 479.607 405.783 472.391 416.306C465.476 426.529 459.613 438.405 454.802 451.935C450.292 465.164 447.586 479.296 446.684 494.329C479.758 485.309 503.21 473.433 517.04 458.7C531.172 443.967 538.237 427.28 538.237 408.639C538.237 399.619 536.283 393.004 532.374 388.795C528.466 384.586 523.505 382.481 517.491 382.481Z" fill="#F5F0E8"/>
<path d="M225.088 600.765C217.271 600.765 209.754 599.111 202.538 595.804C199.231 610.837 196.375 624.367 193.969 636.394C191.564 648.421 189.459 659.846 187.655 670.67C186.152 680.592 190.361 686.906 200.283 689.612L211.558 693.22L210.656 697.73H101.965L102.867 693.22L111.436 690.965C121.96 687.958 128.274 681.193 130.378 670.67L181.341 427.581C183.446 415.855 179.237 407.587 168.713 402.776L160.144 399.168L161.046 394.207L244.481 369.853L248.991 373.461L239.52 420.816C251.246 406.083 264.626 394.057 279.659 384.736C294.993 375.115 309.275 370.304 322.504 370.304C334.832 370.304 345.505 374.664 354.525 383.383C363.545 392.102 368.055 407.887 368.055 430.738C368.055 447.275 365.199 463.661 359.486 479.897C354.074 496.133 346.407 511.617 336.485 526.35C326.864 540.782 315.89 553.56 303.562 564.685C291.235 575.81 278.306 584.679 264.776 591.294C251.246 597.608 238.017 600.765 225.088 600.765ZM283.267 403.678C276.352 403.678 268.835 406.384 260.717 411.796C252.599 417.208 244.632 424.725 236.814 434.346L210.205 564.685C221.33 575.81 232.906 581.372 244.932 581.372C262.672 581.372 277.254 572.051 288.679 553.41C292.889 546.194 296.797 537.024 300.405 525.899C304.013 514.774 306.87 502.748 308.974 489.819C311.38 476.59 312.582 463.811 312.582 451.484C312.582 436.451 310.027 424.725 304.915 416.306C300.105 407.887 292.889 403.678 283.267 403.678Z" fill="#F5F0E8"/>
<path d="M863 346C883.435 346 900 330.106 900 310.5C900 290.894 883.435 275 863 275C842.565 275 826 290.894 826 310.5C826 330.106 842.565 346 863 346Z" fill="#C4714A"/>
</g>
<defs>
<clipPath id="clip0_0_1">
<rect width="1024" height="1024" fill="white"/>
</clipPath>
</defs>
</svg>
